<?xml version="1.0" standalone="no"?>
<!DOCTYPE svg PUBLIC "-//W3C//DTD SVG 20010904//EN"
 "http://www.w3.org/TR/2001/REC-SVG-20010904/DTD/svg10.dtd">
<svg version="1.0" xmlns="http://www.w3.org/2000/svg"
 width="256.000000pt" height="256.000000pt" viewBox="0 0 256.000000 256.000000"
 preserveAspectRatio="xMidYMid meet">

<g transform="translate(0.000000,256.000000) scale(0.100000,-0.100000)"
fill="#000000" stroke="none">
<path d="M1605 1663 c-89 -24 -132 -149 -86 -249 22 -48 68 -74 133 -74 78 0
88 7 88 56 0 37 -3 44 -19 44 -14 0 -21 -8 -23 -27 -3 -24 -8 -28 -41 -31 -52
-4 -84 18 -97 69 -16 57 -4 117 30 151 44 43 110 35 110 -14 0 -11 7 -18 20
-18 17 0 20 7 20 39 0 22 -4 43 -10 46 -14 9 -102 15 -125 8z"/>
<path d="M590 1646 c0 -8 7 -16 15 -20 12 -4 15 -27 15 -121 0 -94 -3 -117
-15 -121 -8 -4 -15 -12 -15 -20 0 -11 20 -14 95 -14 94 0 96 1 130 33 72 66
70 205 -4 254 -29 20 -47 23 -127 23 -74 0 -94 -3 -94 -14z m187 -41 c31 -22
46 -83 34 -136 -13 -58 -40 -82 -93 -83 l-43 -1 -3 118 -3 117 43 0 c24 0 53
-7 65 -15z"/>
<path d="M910 1646 c0 -8 7 -16 15 -20 12 -4 15 -27 15 -115 0 -60 3 -117 6
-126 16 -41 118 -59 174 -30 44 23 50 43 50 160 0 85 3 107 15 111 8 4 15 12
15 20 0 10 -15 14 -55 14 -42 0 -55 -3 -55 -15 0 -8 7 -15 15 -15 12 0 15 -19
15 -109 0 -102 -2 -111 -22 -125 -30 -21 -71 -20 -91 2 -24 26 -25 232 -2 232
8 0 15 7 15 15 0 12 -13 15 -55 15 -40 0 -55 -4 -55 -14z"/>
<path d="M1240 1646 c0 -8 7 -16 15 -20 12 -4 15 -27 15 -116 0 -98 -2 -112
-20 -127 -11 -10 -20 -21 -20 -25 0 -5 52 -8 116 -8 l115 0 -3 42 c-2 31 -8
44 -20 46 -11 2 -18 -5 -20 -20 -3 -20 -10 -23 -50 -26 l-48 -3 0 120 c0 101
2 121 15 121 8 0 15 7 15 15 0 12 -13 15 -55 15 -40 0 -55 -4 -55 -14z"/>
<path d="M1796 1645 c4 -8 10 -15 15 -15 5 0 9 -56 9 -125 0 -104 -2 -125 -15
-125 -8 0 -15 -7 -15 -15 0 -12 20 -15 116 -15 l115 0 -3 37 c-3 44 -35 60
-45 24 -4 -18 -13 -21 -55 -21 l-49 0 3 48 3 47 58 3 c48 3 57 6 57 22 0 16
-9 19 -57 22 l-58 3 0 40 0 40 48 3 c37 2 47 0 47 -12 0 -9 9 -16 20 -16 16 0
20 7 20 35 l0 35 -110 0 c-93 0 -109 -2 -104 -15z"/>
<path d="M1042 1178 c-15 -15 -16 -40 -2 -54 8 -8 6 -15 -5 -24 -8 -7 -15 -19
-15 -26 0 -7 -11 -21 -25 -30 -14 -9 -25 -22 -25 -30 0 -17 32 -34 62 -33 25
1 19 4 -24 13 -33 7 -36 21 -8 36 13 7 32 7 62 -1 51 -14 123 -2 123 21 0 20
-49 30 -106 21 -51 -8 -64 1 -32 24 11 9 26 10 47 4 34 -10 66 -3 66 13 0 5
-9 12 -20 15 -13 4 -19 11 -16 22 3 9 2 22 -3 29 -7 11 -9 11 -14 -2 -4 -9
-14 -16 -23 -16 -14 0 -15 2 -3 18 11 14 10 14 -8 -2 -17 -14 -20 -23 -12 -37
7 -15 6 -17 -6 -13 -18 7 -20 35 -3 52 7 7 10 12 7 12 -3 0 -10 -5 -17 -12z
m98 -68 c0 -5 -6 -10 -14 -10 -8 0 -18 5 -21 10 -3 6 3 10 14 10 12 0 21 -4
21 -10z m30 -59 c0 -5 -12 -11 -26 -14 -36 -6 -105 3 -98 14 7 12 124 12 124
0z"/>
<path d="M610 1105 c0 -8 6 -15 13 -15 7 0 31 -54 56 -126 42 -120 45 -125 70
-122 24 3 30 14 67 122 22 66 46 122 52 124 7 2 12 10 12 18 0 10 -13 14 -45
14 -32 0 -45 -4 -45 -14 0 -8 5 -16 11 -18 13 -4 -36 -178 -49 -178 -4 0 -21
39 -36 86 -25 78 -27 88 -12 96 31 17 16 28 -39 28 -42 0 -55 -3 -55 -15z"/>
<path d="M1340 1105 c0 -8 5 -15 10 -15 6 0 10 -41 10 -104 0 -59 -4 -108 -10
-111 -5 -3 -10 -13 -10 -21 0 -11 15 -14 65 -14 119 0 166 36 173 130 8 115
-28 150 -157 150 -65 0 -81 -3 -81 -15z m171 -41 c25 -23 34 -77 20 -125 -13
-44 -35 -59 -85 -59 l-36 0 0 106 0 107 41 -6 c22 -3 49 -13 60 -23z"/>
<path d="M1680 1106 c0 -8 6 -16 12 -18 15 -5 -46 -196 -68 -214 -26 -21 -15
-34 31 -34 45 0 58 13 35 36 -6 6 -8 18 -4 27 5 13 19 17 59 17 45 0 53 -3 58
-21 3 -12 0 -22 -9 -26 -8 -3 -14 -11 -14 -19 0 -10 14 -14 49 -14 57 0 71 13
43 38 -11 9 -37 68 -58 130 l-39 112 -47 0 c-35 0 -48 -4 -48 -14z m89 -90 c6
-25 11 -50 11 -55 0 -11 -62 -15 -73 -5 -5 5 3 33 28 102 8 22 22 5 34 -42z"/>
<path d="M1202 978 c0 -7 -8 -34 -18 -60 -18 -54 -17 -53 -144 -50 -46 1 -59
-1 -45 -7 23 -11 155 -14 179 -5 9 3 16 17 16 31 0 13 7 38 16 55 9 18 12 34
7 39 -6 6 -10 5 -11 -3z"/>
<path d="M1073 973 c9 -2 25 -2 35 0 9 3 1 5 -18 5 -19 0 -27 -2 -17 -5z"/>
<path d="M1148 973 c6 -2 18 -2 25 0 6 3 1 5 -13 5 -14 0 -19 -2 -12 -5z"/>
<path d="M975 688 c-4 -24 -7 -47 -8 -53 -2 -12 62 -25 69 -14 2 5 -7 11 -21
15 -33 8 -32 22 3 27 26 4 26 4 5 12 -31 10 -29 25 2 25 14 0 25 5 25 10 0 6
-9 10 -19 10 -11 0 -26 3 -34 6 -12 4 -17 -5 -22 -38z"/>
<path d="M1540 715 c-17 -21 0 -89 23 -93 30 -6 49 17 41 52 -11 54 -39 72
-64 41z m42 -35 c3 -17 1 -33 -4 -36 -13 -8 -17 -2 -24 34 -5 25 -3 32 9 32 9
0 16 -12 19 -30z"/>
<path d="M1461 707 c-14 -18 -2 -30 16 -15 25 21 28 -3 5 -44 -13 -22 -22 -41
-20 -43 2 -1 18 0 36 2 32 5 46 23 17 23 -18 0 -18 2 -4 34 19 41 -22 76 -50
43z"/>
<path d="M1064 695 c-8 -19 3 -34 34 -46 19 -7 22 -13 14 -21 -9 -9 -16 -7
-31 6 -12 11 -21 13 -25 7 -4 -6 4 -17 18 -26 19 -13 29 -14 45 -5 30 15 26
37 -9 55 -17 9 -28 20 -25 25 4 6 14 6 26 -1 23 -12 35 -6 24 10 -9 16 -65 13
-71 -4z"/>
<path d="M1303 703 c-21 -8 -14 -25 7 -18 26 8 26 -11 0 -50 -27 -40 -25 -48
7 -40 36 9 41 14 23 25 -12 7 -12 12 -2 22 17 17 15 55 -4 62 -9 3 -16 6 -17
5 -1 0 -8 -3 -14 -6z"/>
<path d="M1374 697 c-3 -8 -4 -32 -2 -53 2 -31 8 -40 24 -42 33 -5 48 21 37
65 -6 28 -14 39 -31 41 -13 2 -25 -3 -28 -11z m40 -32 c7 -27 1 -45 -15 -45
-5 0 -9 16 -9 35 0 41 15 47 24 10z"/>
<path d="M1160 690 c0 -5 5 -10 10 -10 6 0 10 -18 10 -40 0 -22 4 -40 10 -40
5 0 13 18 16 40 4 24 12 40 20 40 8 0 14 5 14 10 0 6 -18 10 -40 10 -22 0 -40
-4 -40 -10z"/>
<path d="M1250 599 c0 -5 5 -7 10 -4 6 3 10 8 10 11 0 2 -4 4 -10 4 -5 0 -10
-5 -10 -11z"/>
</g>
</svg>
